<?xml version="1.0" standalone="no"?><!DOCTYPE svg PUBLIC "-//W3C//DTD SVG 1.1//EN" "http://www.w3.org/Graphics/SVG/1.1/DTD/svg11.dtd"><svg t="1651802251734" class="icon" viewBox="0 0 1024 1024" version="1.1" xmlns="http://www.w3.org/2000/svg" p-id="1421" xmlns:xlink="http://www.w3.org/1999/xlink" width="200" height="200"><defs><style type="text/css">@font-face { font-family: feedback-iconfont; src: url("//at.alicdn.com/t/font_1031158_u69w8yhxdu.woff2?t=1630033759944") format("woff2"), url("//at.alicdn.com/t/font_1031158_u69w8yhxdu.woff?t=1630033759944") format("woff"), url("//at.alicdn.com/t/font_1031158_u69w8yhxdu.ttf?t=1630033759944") format("truetype"); }
</style></defs><path d="M435.3 715.8c64.8 26.9 139.1 17.1 194.7-25.6 55.7-42.7 84.3-111.9 75.2-181.4-9.2-69.6-54.7-129-119.6-155.8-64.8-26.9-139.1-17.1-194.7 25.6S306.5 490.4 315.7 560c9.1 69.6 54.7 129 119.6 155.8z m0 0" p-id="1422" fill="#22356c"></path><path d="M916.2 595.1c3.3-20.1 5-40.4 5.2-60.8 0.2-57.3-11.7-114-35-166.3-9.1-20.5-33.1-29.8-53.6-20.8-20.5 9.1-29.8 33.1-20.8 53.6 18.7 42 28.3 87.5 28.1 133.5-0.1 15.7-1.4 31.4-3.7 46.9-29 7.6-52.7 28.6-63.7 56.5s-8.1 59.4 7.9 84.8c-82.2 118.1-231.6 169.2-369 126.1-137.3-43.1-230.8-170.3-230.8-314.3 0-8.2 0-16 1.1-24 30.3-8.6 54.3-31.8 63.8-61.8 9.5-30 3.4-62.8-16.4-87.3 45-73 116.5-125.7 199.6-146.9 22.7 37.8 68.4 54.9 110.3 41.3 41.9-13.6 68.8-54.4 64.9-98.3-3.9-43.9-37.7-79.2-81.3-85.2-43.7-6-85.7 19-101.2 60.3-111.2 24.8-207.2 94.5-265.2 192.6h-0.4c-41.2-0.1-77.8 26.5-90.3 65.8s1.9 82.1 35.5 105.9c-1.7 11.5-1.7 23.8-1.7 37.6 0.7 179.9 118.3 338.4 290.2 391.3 171.9 52.9 358.3-12.3 459.9-160.7 42.7 5.4 83.6-18.9 99.3-59 15.8-40.1 2.3-85.7-32.7-110.8z m0 0" p-id="1423" fill="#22356c"></path></svg>